<svg width="900" viewBox="0 0 880 756" xmlns="http://www.w3.org/2000/svg" font-family="Arial, Helvetica, sans-serif">
<defs>
  <marker id="arr" viewBox="0 0 10 10" refX="8" refY="5" markerWidth="6" markerHeight="6" orient="auto-start-reverse">
    <path d="M2 1L8 5L2 9" fill="none" stroke="#5F5E5A" stroke-width="1.5" stroke-linecap="round" stroke-linejoin="round"/>
  </marker>
  <marker id="arrm" viewBox="0 0 10 10" refX="8" refY="5" markerWidth="6" markerHeight="6" orient="auto-start-reverse">
    <path d="M2 1L8 5L2 9" fill="none" stroke="#B4B2A9" stroke-width="1.5" stroke-linecap="round" stroke-linejoin="round"/>
  </marker>
</defs>

<rect width="900" height="790" fill="#ffffff"/>

<!-- TITRE -->
<text x="450" y="28" text-anchor="middle" font-size="15" font-weight="700" fill="#2C2C2A">Workflow CDOEA — Dépôt PDFs Démarches Numériques → Grist → n8n → Nuage</text>
<line x1="40" y1="40" x2="860" y2="40" stroke="#D3D1C7" stroke-width="0.6"/>

<!-- ═══════ ZONE DÉMARCHES NUMÉRIQUES ═══════ -->
<rect x="162" y="52" width="300" height="146" rx="10" fill="none" stroke="#5F5E5A" stroke-width="1" stroke-dasharray="5 3"/>
<rect x="196" y="46" width="190" height="16" fill="#ffffff"/>
<text x="291" y="58" text-anchor="middle" font-size="11" font-weight="600" fill="#444441">Démarches Numériques</text>

<!-- Dépôt dossier -->
<rect x="172" y="66" width="280" height="52" rx="7" fill="#FAECE7" stroke="#D85A30" stroke-width="0.8"/>
<text x="312" y="85" text-anchor="middle" font-size="13" font-weight="600" fill="#712B13">Dépôt du dossier</text>
<text x="312" y="103" text-anchor="middle" font-size="11" fill="#993C1D">formulaire · pièces jointes usager</text>

<!-- Annotations + PJ instructeurs -->
<rect x="172" y="134" width="280" height="52" rx="7" fill="#FAECE7" stroke="#D85A30" stroke-width="0.8"/>
<text x="312" y="153" text-anchor="middle" font-size="13" font-weight="600" fill="#712B13">Annotations privées</text>
<text x="312" y="171" text-anchor="middle" font-size="11" fill="#993C1D">évaluation + PJ</text>

<line x1="312" y1="118" x2="312" y2="132" stroke="#5F5E5A" stroke-width="1.2" marker-end="url(#arr)"/>

<!-- ACTEURS -->
<rect x="22" y="66" width="128" height="52" rx="7" fill="#FAECE7" stroke="#D85A30" stroke-width="0.8"/>
<text x="86" y="85" text-anchor="middle" font-size="13" font-weight="600" fill="#712B13">Usager</text>
<text x="86" y="103" text-anchor="middle" font-size="11" fill="#993C1D">famille · élève</text>


<line x1="150" y1="92" x2="170" y2="92" stroke="#5F5E5A" stroke-width="1.2" marker-end="url(#arr)"/>

<!-- Acteur instructeurs -->
<rect x="22" y="134" width="128" height="52" rx="7" fill="#FAECE7" stroke="#D85A30" stroke-width="0.8"/>
<text x="86" y="153" text-anchor="middle" font-size="13" font-weight="600" fill="#712B13">Instructeurs</text>
<text x="86" y="171" text-anchor="middle" font-size="11" fill="#993C1D">équipe pédagogique</text>
<line x1="150" y1="160" x2="170" y2="160" stroke="#5F5E5A" stroke-width="1.2" marker-end="url(#arr)"/>

<!-- ═══════ ZONE GRIST ═══════ -->
<rect x="480" y="52" width="268" height="146" rx="10" fill="none" stroke="#5F5E5A" stroke-width="1" stroke-dasharray="5 3"/>
<rect x="530" y="46" width="96" height="16" fill="#ffffff"/>
<text x="578" y="58" text-anchor="middle" font-size="11" font-weight="600" fill="#444441">Grist</text>

<!-- Table dossiers -->
<rect x="492" y="66" width="244" height="52" rx="7" fill="#EEEDFE" stroke="#534AB7" stroke-width="0.8"/>
<text x="614" y="85" text-anchor="middle" font-size="13" font-weight="600" fill="#26215C">Table dossiers</text>
<text x="614" y="103" text-anchor="middle" font-size="11" fill="#3C3489">table des saisines CDOEA</text>

<!-- One Trick Pony — vert, application tierce distincte -->
<rect x="492" y="134" width="244" height="52" rx="7" fill="#EAF3DE" stroke="#3B6D11" stroke-width="1.2"/>
<text x="614" y="153" text-anchor="middle" font-size="13" font-weight="600" fill="#173404">One Trick Pony</text>
<text x="614" y="171" text-anchor="middle" font-size="11" fill="#27500A">sync DN → Grist (automatique)</text>

<!-- OTP → Table (remonte) -->
<line x1="614" y1="134" x2="614" y2="120" stroke="#5F5E5A" stroke-width="1.2" marker-end="url(#arr)"/>
<!-- DN → OTP -->
<line x1="462" y1="160" x2="490" y2="160" stroke="#B4B2A9" stroke-width="1" stroke-dasharray="4 2" marker-end="url(#arrm)"/>

<!-- Grist → Lire Grist : passe PAR LA DROITE, au-delà de la zone Grist, puis descend -->
  <path d="M736,92 L775,92 L775,248 L446,248" fill="none" stroke="#B4B2A9" stroke-width="1" stroke-dasharray="4 2" marker-end="url(#arrm)"/>

<!-- ═══════ ZONE n8n ═══════ -->
<rect x="56" y="208" width="784" height="478" rx="12" fill="none" stroke="#888780" stroke-width="1.4" stroke-dasharray="6 3"/>
<rect x="110" y="202" width="46" height="16" fill="#ffffff"/>
<text x="133" y="214" text-anchor="middle" font-size="11" font-weight="700" fill="#444441">n8n</text>

<!-- DN → n8n -->
<line x1="312" y1="186" x2="312" y2="222" stroke="#5F5E5A" stroke-width="1.2" marker-end="url(#arr)"/>

<!-- Lire Grist -->
<rect x="178" y="222" width="268" height="52" rx="7" fill="#EEEDFE" stroke="#534AB7" stroke-width="0.8"/>
<text x="312" y="241" text-anchor="middle" font-size="13" font-weight="600" fill="#26215C">Lire Grist</text>
<text x="312" y="259" text-anchor="middle" font-size="11" fill="#3C3489">lecture table · returnAll</text>
<line x1="312" y1="274" x2="312" y2="287" stroke="#5F5E5A" stroke-width="1.2" marker-end="url(#arr)"/>

<!-- Filtrer — logique interne n8n : GRIS NEUTRE -->
<rect x="178" y="287" width="268" height="40" rx="7" fill="#E8E7E0" stroke="#5F5E5A" stroke-width="0.8"/>
<text x="312" y="301" text-anchor="middle" font-size="13" font-weight="600" fill="#2C2C2A">Filtrer non-déposés</text>
<text x="312" y="317" text-anchor="middle" font-size="11" fill="#444441">archive_nuage ≠ true</text>
<line x1="312" y1="327" x2="312" y2="340" stroke="#5F5E5A" stroke-width="1.2" marker-end="url(#arr)"/>

<!-- Boucle — logique interne n8n : GRIS NEUTRE pointillé -->
<rect x="178" y="340" width="268" height="40" rx="7" fill="#E8E7E0" stroke="#5F5E5A" stroke-width="0.8" stroke-dasharray="5 3"/>
<text x="312" y="354" text-anchor="middle" font-size="13" font-weight="600" fill="#2C2C2A">↻  Boucle sur les dossiers</text>
<text x="312" y="370" text-anchor="middle" font-size="11" fill="#444441">SplitInBatches · 1 dossier à la fois</text>
<line x1="312" y1="380" x2="312" y2="393" stroke="#5F5E5A" stroke-width="1.2" marker-end="url(#arr)"/>

<!-- Appel GraphQL DN -->
<rect x="178" y="393" width="268" height="52" rx="7" fill="#FAECE7" stroke="#D85A30" stroke-width="0.8"/>
<text x="312" y="412" text-anchor="middle" font-size="13" font-weight="600" fill="#712B13">Appel GraphQL DN</text>
<text x="312" y="430" text-anchor="middle" font-size="11" fill="#993C1D">PJ usager · PJ instructeurs · annotations</text>
<line x1="312" y1="445" x2="312" y2="458" stroke="#5F5E5A" stroke-width="1.2" marker-end="url(#arr)"/>

<!-- Préparer + MKCOL -->
<rect x="178" y="458" width="268" height="52" rx="7" fill="#E6F1FB" stroke="#185FA5" stroke-width="0.8"/>
<text x="312" y="477" text-anchor="middle" font-size="13" font-weight="600" fill="#042C53">Préparer + MKCOL</text>
<text x="312" y="495" text-anchor="middle" font-size="11" fill="#0C447C">nom dossier élève · création dossier WebDAV</text>
<line x1="312" y1="510" x2="312" y2="523" stroke="#5F5E5A" stroke-width="1.2" marker-end="url(#arr)"/>

<!-- Download & PUT -->
<rect x="178" y="523" width="268" height="52" rx="7" fill="#E6F1FB" stroke="#185FA5" stroke-width="0.8"/>
<text x="312" y="542" text-anchor="middle" font-size="13" font-weight="600" fill="#042C53">Download &amp; PUT</text>
<text x="312" y="560" text-anchor="middle" font-size="11" fill="#0C447C">GET fichier DN · PUT Nuage · binaryMode:separate</text>
<line x1="312" y1="575" x2="312" y2="588" stroke="#5F5E5A" stroke-width="1.2" marker-end="url(#arr)"/>

<!-- Marquer déposé -->
<rect x="178" y="588" width="268" height="52" rx="7" fill="#EEEDFE" stroke="#534AB7" stroke-width="0.8"/>
<text x="312" y="607" text-anchor="middle" font-size="13" font-weight="600" fill="#26215C">Marquer comme déposé</text>
<text x="312" y="625" text-anchor="middle" font-size="11" fill="#3C3489">archive_nuage = true · écriture Grist</text>

<!-- Nuage (dans la zone n8n) -->
<rect x="502" y="523" width="240" height="52" rx="7" fill="#E6F1FB" stroke="#185FA5" stroke-width="0.8"/>
<text x="622" y="542" text-anchor="middle" font-size="13" font-weight="600" fill="#042C53">Nuage</text>
<text x="622" y="560" text-anchor="middle" font-size="11" fill="#0C447C">instance WebDAV Education Nationale</text>
<line x1="446" y1="549" x2="500" y2="549" stroke="#5F5E5A" stroke-width="1.2" marker-end="url(#arr)"/>

<!-- Flèche retour boucle : descend à DROITE des blocs, puis remonte vers la Boucle -->
<path d="M446,614 L476,614 L476,360 L446,360" fill="none" stroke="#B4B2A9" stroke-width="1" stroke-dasharray="5 3" marker-end="url(#arrm)"/>
<text x="484" y="491" text-anchor="start" font-size="10" fill="#888780">dossier</text>
<text x="484" y="503" text-anchor="start" font-size="10" fill="#888780">suivant</text>

<!-- ═══════ LÉGENDE ═══════ -->
<line x1="40" y1="700" x2="860" y2="700" stroke="#D3D1C7" stroke-width="0.5"/>

<!-- Ligne bas -->
<line x1="40" y1="746" x2="860" y2="746" stroke="#D3D1C7" stroke-width="0.4"/>
<line x1="40" y1="700" x2="860" y2="700" stroke="#D3D1C7" stroke-width="0.5"/>
<text x="450" y="714" text-anchor="middle" font-size="10" font-weight="700" fill="#444441">Légende — services et applications</text>
<rect x="92" y="722" width="11" height="11" rx="2" fill="#FAECE7" stroke="#D85A30" stroke-width="1"/>
<text x="107" y="732" font-size="10" fill="#5F5E5A">Démarches Numériques</text>


<rect x="272" y="722" width="11" height="11" rx="2" fill="#EEEDFE" stroke="#534AB7" stroke-width="1"/>
<text x="287" y="732" font-size="10" fill="#5F5E5A">Grist</text>
<rect x="326" y="722" width="11" height="11" rx="2" fill="#E6F1FB" stroke="#185FA5" stroke-width="1"/>
<text x="341" y="732" font-size="10" fill="#5F5E5A">Nuage · WebDAV</text>
<rect x="450" y="722" width="11" height="11" rx="2" fill="#EAF3DE" stroke="#3B6D11" stroke-width="1.2"/>
<text x="465" y="732" font-size="10" fill="#5F5E5A">One Trick Pony</text>
<rect x="562" y="722" width="11" height="11" rx="2" fill="#E8E7E0" stroke="#5F5E5A" stroke-width="1"/>
<text x="577" y="732" font-size="10" fill="#5F5E5A">n8n · logique interne</text>
<rect x="688" y="722" width="11" height="11" rx="2" fill="none" stroke="#888780" stroke-width="0.8" stroke-dasharray="3 2"/>
<text x="703" y="732" font-size="10" fill="#5F5E5A">zone applicative</text>
<line x1="40" y1="746" x2="860" y2="746" stroke="#D3D1C7" stroke-width="0.4"/>
</svg>
